<svg width="52.941406" height="60.000000" viewBox="0 0 52.9414 60" fill="none" xmlns="http://www.w3.org/2000/svg" xmlns:xlink="http://www.w3.org/1999/xlink">
	<desc>
			Created with Pixso.
	</desc>
	<defs/>
	<path id="Vector" d="M51.1641 23.9628C50.7695 10.6825 39.8447 0 26.4707 0C13.0967 0 2.1709 10.6825 1.77637 23.9628L0 25.7396L0 37.7898L1.76465 39.5544L1.76465 47.7646C1.76465 52.5652 5.66992 56.4706 10.4707 56.4706L12.6562 56.4706C13.3848 58.5245 15.3467 60 17.6475 60L21.1768 60C23.4785 60 25.4414 58.5225 26.1689 56.4663C26.2695 56.4681 26.3701 56.4706 26.4707 56.4706C34.9932 56.4706 42.123 50.3981 43.7627 42.3529L48.3779 42.3529L52.9414 37.7898L52.9414 25.7396L51.1641 23.9628ZM26.4707 3.52942C36.9453 3.52942 45.666 11.174 47.3516 21.1765L43.7627 21.1765C42.123 13.1313 34.9932 7.05884 26.4707 7.05884C17.9482 7.05884 10.8184 13.1313 9.17871 21.1765L5.58984 21.1765C7.27539 11.174 15.9961 3.52942 26.4707 3.52942ZM40.1416 21.1765C34.4365 21.1594 30.4072 21.5068 27.085 16.6506L25.4727 14.2926L24.0859 16.7906C22.0654 20.4305 19.3457 21.1765 15.8828 21.1765L12.7998 21.1765C14.3711 15.0944 19.9043 10.5883 26.4707 10.5883C33.0371 10.5883 38.5703 15.0944 40.1416 21.1765ZM8.82324 38.8235L6.02539 38.8235L3.5293 36.3279L3.5293 27.2015L6.02539 24.7059L8.82324 24.7059L8.82324 38.8235ZM5.29395 47.7646L5.29395 42.3529L9.1748 42.3529C9.83887 45.6442 11.4287 48.6652 13.7832 51.0917C13.29 51.619 12.9023 52.2467 12.6562 52.9412L10.4707 52.9412C7.61621 52.9412 5.29395 50.619 5.29395 47.7646ZM21.1768 56.4706L17.6475 56.4706C16.6738 56.4706 15.8828 55.6791 15.8828 54.7059C15.8828 53.7328 16.6738 52.9412 17.6475 52.9412L21.1768 52.9412C22.1494 52.9412 22.9414 53.7328 22.9414 54.7059C22.9414 55.6791 22.1494 56.4706 21.1768 56.4706ZM40.5879 38.8235C40.5879 46.608 34.2549 52.9412 26.4707 52.9412C26.3691 52.9412 26.2676 52.9392 26.166 52.9368C25.4355 50.885 23.4756 49.4117 21.1768 49.4117C17.5527 49.4198 17.6104 49.3937 17.1592 49.4352C14.0957 46.7498 12.3525 42.9248 12.3525 38.8235L12.3525 24.7059L15.8828 24.7059C19.0059 24.7059 22.8086 24.1909 25.7529 20.6077C29.6377 24.6786 34.3857 24.7059 38.6465 24.7059L40.5879 24.7059L40.5879 38.8235ZM49.4121 36.3279L46.916 38.8235L44.1172 38.8235L44.1172 24.7059L46.916 24.7059L49.4121 27.2015L49.4121 36.3279Z" fill="#242424" fill-opacity="1.000000" fill-rule="nonzero"/>
</svg>
