<svg width="60.000000" height="55.970703" viewBox="0 0 60 55.9707" fill="none" xmlns="http://www.w3.org/2000/svg" xmlns:xlink="http://www.w3.org/1999/xlink">
	<desc>
			Created with Pixso.
	</desc>
	<defs/>
	<path id="Vector" d="M55.3477 29.0873L55.3477 1.76501C55.3477 0.790283 54.5576 0 53.583 0L6.29492 0C5.32031 0 4.53027 0.790283 4.53027 1.76501L4.53027 31.2654C3.67871 31.3894 2.84668 31.72 2.11035 32.2666C-0.210938 33.9126 -0.760742 37.5963 1.18359 39.868L9.13379 49.5057C14.0547 55.2651 19.2822 55.9707 27.0537 55.9707C33.7227 55.9707 36.7041 56.0002 42.5166 54.6759L48.1758 53.3223C49.0938 54.6038 50.5508 55.4338 52.1885 55.4338L54.9766 55.4338C57.7461 55.4338 60 53.0597 60 50.1415L60 34.3638C60 31.5773 57.9453 29.2885 55.3477 29.0873ZM47.415 32.718L45.0625 31.5236C41.1963 29.5718 36.7256 29.4995 32.7979 31.3257C31.7266 31.7471 29.3896 33.1613 28.1768 33.1139L20.0166 33.1139C17.3096 33.1139 15.1074 35.316 15.1074 38.0229L15.1074 39.3101C15.0928 39.2941 15.0762 39.2789 15.0615 39.2627L9.23438 32.9373C8.88184 32.5546 8.48535 32.2343 8.06055 31.9773L8.06055 14.4663L22.5039 14.4663L22.5039 20.9363C22.5039 21.911 23.2939 22.7013 24.2695 22.7013L35.4062 22.7013C36.3809 22.7013 37.1709 21.911 37.1709 20.9363L37.1709 14.4663L51.8184 14.4663L51.8184 29.0872C49.7559 29.2465 48.0361 30.7218 47.415 32.718ZM26.0342 14.4663L33.6416 14.4663L33.6416 19.1713L26.0342 19.1713L26.0342 14.4663ZM51.8184 10.9364L37.1709 10.9364L37.1709 3.53003L51.8184 3.53003L51.8184 10.9364L51.8184 10.9364ZM33.6416 3.53003L33.6416 10.9365L26.0342 10.9365L26.0342 3.53003L33.6416 3.53003ZM22.5039 3.53003L22.5039 10.9365L8.06055 10.9365L8.06055 3.53003L22.5039 3.53003ZM41.6973 51.2421C36.3281 52.4718 33.0947 52.4221 27.1172 52.4221C19.8223 52.4221 16.2969 52.3042 11.8574 47.2594L3.90723 37.6217C2.52441 35.821 5.0293 33.6954 6.6377 35.3289L12.4658 41.6543C14.0059 43.2794 15.9434 44.1738 18.332 44.2264L34.4893 44.2264C35.4639 44.2264 36.2539 43.4362 36.2539 42.4614C36.2539 41.4867 35.4639 40.6964 34.4893 40.6964L18.6377 40.6964L18.6377 38.0227C18.6377 37.2623 19.2559 36.6437 20.0166 36.6437L28.1768 36.6437C30.0156 36.7753 32.6689 35.2402 34.2861 34.5264C37.2275 33.1586 40.5762 33.2128 43.4688 34.6725L47.165 36.55L47.165 49.9343L41.6973 51.2421ZM56.4697 50.1414C56.4697 51.1132 55.7998 51.9038 54.9766 51.9038L52.1885 51.9038C51.3643 51.9038 50.6943 51.1132 50.6943 50.1414L50.6943 34.3638C50.6943 33.392 51.3652 32.6012 52.1885 32.6012L54.9766 32.6012C55.7998 32.6012 56.4697 33.3918 56.4697 34.3638L56.4697 50.1414Z" fill="#242424" fill-opacity="1.000000" fill-rule="nonzero"/>
</svg>
