<svg width="60.000000" height="58.125000" viewBox="0 0 60 58.125" fill="none" xmlns="http://www.w3.org/2000/svg" xmlns:xlink="http://www.w3.org/1999/xlink">
	<desc>
			Created with Pixso.
	</desc>
	<defs/>
	<path id="Vector" d="M56.7861 20.3237C55.9941 17.8722 56.332 14.1921 54.2744 11.3507C52.2002 8.48682 48.5928 7.67285 46.5557 6.18323C44.541 4.70923 42.666 1.50171 39.2754 0.395386C35.9814 -0.679688 32.6123 0.779175 30 0.779175C27.3887 0.779175 24.0195 -0.680054 20.7246 0.395264C17.335 1.50134 15.458 4.70959 13.4443 6.18286C11.4102 7.67078 7.7998 8.48694 5.72656 11.3503C3.66992 14.1895 4.00391 17.8779 3.21387 20.3236C2.46191 22.6514 0 25.4449 0 29.0627C0 32.6829 2.45898 35.4657 3.21387 37.8018C4.00586 40.2534 3.66797 43.9333 5.72559 46.7749C7.7998 49.6388 11.4072 50.4526 13.4443 51.9425C15.459 53.4163 17.334 56.624 20.7246 57.7301C24.0166 58.8044 27.3906 57.3463 30 57.3463C32.6055 57.3463 35.9873 58.803 39.2754 57.7302C42.665 56.6243 44.54 53.4166 46.5557 51.9427C48.5898 50.4547 52.2002 49.6385 54.2734 46.7751C56.3301 43.936 55.9951 40.2478 56.7861 37.8019C57.5381 35.4741 60 32.6804 60 29.0627C60 25.443 57.542 22.6609 56.7861 20.3237ZM52.3262 36.3605C51.4033 39.2169 51.6445 42.4137 50.4775 44.0255C49.2949 45.6587 46.1865 46.4048 43.7891 48.1588C41.417 49.8933 39.7549 52.6429 37.8213 53.2737C35.9922 53.8706 33.0117 52.6586 30 52.6586C26.9668 52.6586 24.0166 53.8733 22.1787 53.2737C20.2451 52.6429 18.5859 49.8951 16.2109 48.1587C13.8271 46.4153 10.7021 45.6539 9.52246 44.0253C8.35938 42.4188 8.5918 39.2 7.6748 36.3606C6.77539 33.5787 4.6875 31.1699 4.6875 29.0627C4.6875 26.9535 6.77344 24.5531 7.67383 21.765C8.59668 18.9087 8.35547 15.7117 9.52246 14.1001C10.7051 12.4679 13.8145 11.7194 16.2109 9.96667C18.5908 8.22656 20.2422 5.48364 22.1787 4.85181C24.0059 4.25562 26.9961 5.46692 30 5.46692C33.0391 5.46692 35.9814 4.25146 37.8213 4.85181C39.7539 5.48254 41.416 8.23132 43.7891 9.9668C46.1719 11.7102 49.2979 12.4716 50.4775 14.1001C51.6416 15.7069 51.4072 18.9225 52.3252 21.7648L52.3252 21.7649C53.2246 24.5469 55.3125 26.9556 55.3125 29.0627C55.3125 31.172 53.2266 33.5725 52.3262 36.3605ZM40.7979 21.5399C41.7129 22.4553 41.7129 23.9392 40.7979 24.8545L29.0664 36.5856C28.1514 37.501 26.667 37.5009 25.752 36.5856L19.2021 30.0355C18.2871 29.1202 18.2871 27.6362 19.2021 26.7211C20.1172 25.8058 21.6016 25.8057 22.5166 26.7211L27.4092 31.6138L37.4834 21.54C38.3984 20.6246 39.8828 20.6246 40.7979 21.5399Z" fill="#242424" fill-opacity="1.000000" fill-rule="nonzero"/>
</svg>
