<svg width="52.771973" height="60.000000" viewBox="0 0 52.772 60" fill="none" xmlns="http://www.w3.org/2000/svg" xmlns:xlink="http://www.w3.org/1999/xlink">
	<desc>
			Created with Pixso.
	</desc>
	<defs/>
	<path id="Vector" d="M45.7402 3.51562C44.46 3.51562 43.2598 3.86121 42.2246 4.46155L42.2246 1.75781C42.2246 0.786987 41.4375 0 40.4668 0L12.3418 0C11.3711 0 10.584 0.786987 10.584 1.75781L10.584 4.48303C9.54053 3.86926 8.32666 3.51562 7.03125 3.51562C3.1543 3.51562 0 6.6698 0 10.5469C0 13.5042 0.876465 16.3615 2.53418 18.8102C5.35645 22.979 8.83691 24.0607 11.7168 25.2126C13.3774 29.348 16.7354 32.6252 20.9243 34.1769L19.6279 42.4219L19.373 42.4219C16.4653 42.4219 14.0996 44.7876 14.0996 47.6953L14.0996 56.4844L12.3418 56.4844C11.3711 56.4844 10.584 57.2714 10.584 58.2422C10.584 59.213 11.3711 60 12.3418 60L40.4668 60C41.4375 60 42.2246 59.213 42.2246 58.2422C42.2246 57.2714 41.4375 56.4844 40.4668 56.4844L38.709 56.4844L38.709 47.6953C38.709 44.7876 36.3433 42.4219 33.4355 42.4219L33.1812 42.4219L31.8848 34.177C36.0796 32.623 39.4414 29.3386 41.0996 25.1948C43.8203 24.1067 47.3862 23.0217 50.2378 18.8102C51.8955 16.3615 52.772 13.504 52.772 10.5469C52.7715 6.6698 49.6172 3.51562 45.7402 3.51562ZM10.5708 20.968C6.28516 19.2535 3.51562 15.1631 3.51562 10.5469C3.51562 8.6084 5.09277 7.03125 7.03125 7.03125C8.96973 7.03125 10.5469 8.6084 10.5469 10.5469C10.5469 10.6705 10.5601 10.791 10.584 10.9073L10.584 19.3359C10.584 19.9009 10.6143 20.4589 10.6729 21.0087L10.5708 20.968ZM35.1934 56.4844L17.6152 56.4844L17.6152 52.9688L35.1934 52.9688L35.1934 56.4844ZM33.4355 45.9375C34.4048 45.9375 35.1934 46.7261 35.1934 47.6953L35.1934 49.4531L17.6152 49.4531L17.6152 47.6953C17.6152 46.7261 18.4038 45.9375 19.373 45.9375C20.3267 45.9375 31.1992 45.9375 33.4355 45.9375ZM23.1865 42.4219L24.3501 35.0229C25.0225 35.1107 25.708 35.1562 26.4043 35.1562C27.1006 35.1562 27.7861 35.1106 28.459 35.0229L29.6221 42.4219L23.1865 42.4219ZM38.709 19.3359C38.709 26.1207 33.1895 31.6406 26.4043 31.6406C19.6196 31.6406 14.0996 26.1207 14.0996 19.3359L14.0996 10.5469L38.709 10.5469L38.709 19.3359ZM38.709 7.03125L14.0996 7.03125L14.0996 3.51562L38.709 3.51562L38.709 7.03125ZM42.2007 20.968L42.1382 20.9929C42.1948 20.4482 42.2246 19.8955 42.2246 19.3359L42.2246 10.5469C42.2246 8.6084 43.8018 7.03125 45.7402 7.03125C47.6787 7.03125 49.2559 8.6084 49.2559 10.5469C49.2559 15.1631 46.4868 19.2537 42.2007 20.968Z" fill="#242424" fill-opacity="1.000000" fill-rule="nonzero"/>
</svg>
